<svg xmlns="http://www.w3.org/2000/svg" xmlns:xlink="http://www.w3.org/1999/xlink" xmlns:lucid="lucid" width="1521.1" height="973.83"><g transform="translate(-1445.3121151488076 -29.57761197821656)" lucid:page-tab-id="0_0"><path d="M1800 58.58a8 8 0 0 1 8-8h836.75a8 8 0 0 1 8 8v25.15a8 8 0 0 1-8 8H1808a8 8 0 0 1-8-8z" stroke="#000" stroke-opacity="0" stroke-width="2" fill="#fff" fill-opacity="0"/><use xlink:href="#a" transform="matrix(1,0,0,1,1804,54.57761197821656) translate(334.8698765432099 25.782777777777778)"/><use xlink:href="#b" transform="matrix(1,0,0,1,1804,54.57761197821656) translate(412.00691358024693 25.782777777777778)"/><path d="M2076.48 90.4h309.36M2076.5 90.4h-1.02M2385.82 90.4h1.02" stroke="#a9afb8" stroke-width="2" fill="none"/><path d="M1800 99.73a8 8 0 0 1 8-8h837.7a8 8 0 0 1 8 8v2.85a8 8 0 0 1-8 8H1808a8 8 0 0 1-8-8z" stroke="#000" stroke-opacity="0" stroke-width="2" fill="#fff" fill-opacity="0"/><use xlink:href="#c" transform="matrix(1,0,0,1,1804.0000000000005,95.73283593511538) translate(293.65711934156377 14.917037037037037)"/><use xlink:href="#d" transform="matrix(1,0,0,1,1804.0000000000005,95.73283593511538) translate(343.11514403292176 14.917037037037037)"/><use xlink:href="#e" transform="matrix(1,0,0,1,1804.0000000000005,95.73283593511538) translate(435.19034979423867 14.917037037037037)"/><use xlink:href="#f" transform="matrix(1,0,0,1,1804.0000000000005,95.73283593511538) translate(447.6398353909465 14.917037037037037)"/><use xlink:href="#g" transform="matrix(1,0,0,1,1804.0000000000005,95.73283593511538) translate(499.4772839506172 14.917037037037037)"/><use xlink:href="#h" transform="matrix(1,0,0,1,1804.0000000000005,95.73283593511538) translate(524.9711111111111 14.917037037037037)"/><path d="M1766.3 140.86h300v219h-300z" stroke="#333" stroke-width="2" fill="#fff"/><path d="M1766.3 178.46h300m-300 134.07h300" stroke="#333" stroke-width="2" fill="none"/><use xlink:href="#i" transform="matrix(1,0,0,1,1774.3121151488076,148.85596737773028) translate(122.025 14.6)"/><use xlink:href="#j" transform="matrix(1,0,0,1,1778.3121151488076,186.45596737773027) translate(0 19.89999999999999)"/><use xlink:href="#k" transform="matrix(1,0,0,1,1778.3121151488076,186.45596737773027) translate(10.95 19.89999999999999)"/><use xlink:href="#l" transform="matrix(1,0,0,1,1778.3121151488076,186.45596737773027) translate(97.75 19.89999999999999)"/><use xlink:href="#j" transform="matrix(1,0,0,1,1778.3121151488076,186.45596737773027) translate(0 41.49999999999999)"/><use xlink:href="#m" transform="matrix(1,0,0,1,1778.3121151488076,186.45596737773027) translate(10.95 41.49999999999999)"/><use xlink:href="#l" transform="matrix(1,0,0,1,1778.3121151488076,186.45596737773027) translate(96.8 41.49999999999999)"/><use xlink:href="#j" transform="matrix(1,0,0,1,1778.3121151488076,186.45596737773027) translate(0 63.099999999999994)"/><use xlink:href="#n" transform="matrix(1,0,0,1,1778.3121151488076,186.45596737773027) translate(10.95 63.099999999999994)"/><use xlink:href="#l" transform="matrix(1,0,0,1,1778.3121151488076,186.45596737773027) translate(84.9 63.099999999999994)"/><use xlink:href="#j" transform="matrix(1,0,0,1,1778.3121151488076,186.45596737773027) translate(0 84.70000000000002)"/><use xlink:href="#o" transform="matrix(1,0,0,1,1778.3121151488076,186.45596737773027) translate(10.95 84.70000000000002)"/><use xlink:href="#l" transform="matrix(1,0,0,1,1778.3121151488076,186.45596737773027) translate(63.80000000000001 84.70000000000002)"/><use xlink:href="#j" transform="matrix(1,0,0,1,1778.3121151488076,186.45596737773027) translate(0 106.30000000000001)"/><use xlink:href="#p" transform="matrix(1,0,0,1,1778.3121151488076,186.45596737773027) translate(10.95 106.30000000000001)"/><use xlink:href="#q" transform="matrix(1,0,0,1,1778.3121151488076,186.45596737773027) translate(97.85000000000001 106.30000000000001)"/><path d="M1764.8 250.36h-142.5a6 6 0 0 0-6 6V456" stroke="#3a414a" fill="none"/><path d="M1765.3 250.86h-.5v-1h.5z" stroke="#3a414a" stroke-width=".05" fill="#3a414a"/><path d="M1616.3 478.02l-12.7-21.52h25.44z" stroke="#3a414a" fill="#fff"/><path d="M1466.3 480h300v176h-300z" stroke="#333" stroke-width="2" fill="#fff"/><path d="M1466.3 517.6h300m-300 47.67h300" stroke="#333" stroke-width="2" fill="none"/><use xlink:href="#r" transform="matrix(1,0,0,1,1474.3121151488076,488) translate(105.07499999999999 14.6)"/><use xlink:href="#s" transform="matrix(1,0,0,1,1478.3121151488076,573.2720163111348) translate(0 19.5)"/><use xlink:href="#t" transform="matrix(1,0,0,1,1478.3121151488076,573.2720163111348) translate(15.5 19.5)"/><use xlink:href="#s" transform="matrix(1,0,0,1,1478.3121151488076,573.2720163111348) translate(0 41.1)"/><use xlink:href="#u" transform="matrix(1,0,0,1,1478.3121151488076,573.2720163111348) translate(15.5 41.1)"/><use xlink:href="#s" transform="matrix(1,0,0,1,1478.3121151488076,573.2720163111348) translate(0 62.7)"/><use xlink:href="#v" transform="matrix(1,0,0,1,1478.3121151488076,573.2720163111348) translate(15.5 62.7)"/><path d="M2067.8 250.36h142.5a6 6 0 0 1 6 6V456" stroke="#3a414a" fill="none"/><path d="M2067.82 250.86h-.5v-1h.5z" stroke="#3a414a" stroke-width=".05" fill="#3a414a"/><path d="M2216.3 478.02l-12.7-21.52h25.44z" stroke="#3a414a" fill="#fff"/><path d="M2066.3 480h300v155h-300z" stroke="#333" stroke-width="2" fill="#fff"/><path d="M2066.3 517.6h300m-300 69.27h300" stroke="#333" stroke-width="2" fill="none"/><use xlink:href="#w" transform="matrix(1,0,0,1,2074.3121151488076,488) translate(99.55 14.6)"/><use xlink:href="#j" transform="matrix(1,0,0,1,2078.3121151488076,525.6) translate(0 19.799999999999997)"/><use xlink:href="#x" transform="matrix(1,0,0,1,2078.3121151488076,525.6) translate(10.95 19.799999999999997)"/><use xlink:href="#y" transform="matrix(1,0,0,1,2078.3121151488076,525.6) translate(73.9 19.799999999999997)"/><use xlink:href="#j" transform="matrix(1,0,0,1,2078.3121151488076,525.6) translate(0 41.4)"/><use xlink:href="#z" transform="matrix(1,0,0,1,2078.3121151488076,525.6) translate(10.95 41.4)"/><use xlink:href="#q" transform="matrix(1,0,0,1,2078.3121151488076,525.6) translate(82.85000000000001 41.4)"/><path d="M2345.4 180h300v166h-300z" stroke="#333" stroke-width="2" fill="#fff"/><path d="M2345.4 239.2h300" stroke="#333" stroke-width="2" fill="none"/><use xlink:href="#A" transform="matrix(1,0,0,1,2353.4079218353113,188) translate(82.07499999999999 14.799999999999999)"/><use xlink:href="#B" transform="matrix(1,0,0,1,2353.4079218353113,188) translate(103.57499999999999 36.4)"/><use xlink:href="#C" transform="matrix(1,0,0,1,2357.4079218353113,247.2) translate(0 27.5)"/><use xlink:href="#D" transform="matrix(1,0,0,1,2357.4079218353113,247.2) translate(0 49.1)"/><use xlink:href="#E" transform="matrix(1,0,0,1,2357.4079218353113,247.2) translate(0 70.7)"/><path d="M2367.8 557.5h121.6a6 6 0 0 0 6-6V363.38" stroke="#3a414a" fill="none"/><path d="M2367.82 558h-.5v-1h.5z" stroke="#3a414a" stroke-width=".05" fill="#3a414a"/><path d="M2495.4 348.62l4.64 14.26h-9.27z" stroke="#3a414a" fill="#3a414a"/><use xlink:href="#F" transform="matrix(1,0,0,1,2381.8006258469336,532.1666666666667) translate(0 14.222222222222223)"/><use xlink:href="#G" transform="matrix(1,0,0,1,2477.5313786254346,363.2878566023176) translate(0 14.222222222222223)"/><path d="M1766.3 760h300v133h-300z" stroke="#333" stroke-width="2" fill="#fff"/><path d="M1766.3 797.6h300m-300 47.67h300" stroke="#333" stroke-width="2" fill="none"/><use xlink:href="#H" transform="matrix(1,0,0,1,1774.3121151488076,768) translate(119.2 14.6)"/><use xlink:href="#j" transform="matrix(1,0,0,1,1778.3121151488076,805.6) translate(0 19.6)"/><use xlink:href="#I" transform="matrix(1,0,0,1,1778.3121151488076,805.6) translate(10.95 19.6)"/><use xlink:href="#q" transform="matrix(1,0,0,1,1778.3121151488076,805.6) translate(65.9 19.6)"/><path d="M2067.8 773.72h36.6a6 6 0 0 0 6-6V652.38" stroke="#3a414a" fill="none"/><path d="M2067.82 774.22h-.5v-1h.5z" stroke="#3a414a" stroke-width=".05" fill="#3a414a"/><path d="M2110.4 637.62l4.65 14.26h-9.27z" stroke="#3a414a" fill="#3a414a"/><use xlink:href="#J" transform="matrix(1,0,0,1,2066.626456383181,777.7230082038438) translate(0 14.222222222222223)"/><use xlink:href="#K" transform="matrix(1,0,0,1,2123.0478042147447,646.9349506003897) translate(0 14.222222222222223)"/><path d="M2064.8 557.5h-142.5a6 6 0 0 0-6 6v179.12" stroke="#3a414a" fill="none"/><path d="M2065.3 558h-.5v-1h.5z" stroke="#3a414a" stroke-width=".05" fill="#3a414a"/><path d="M1916.3 757.38l-4.62-14.26h9.27z" stroke="#3a414a" fill="#3a414a"/><use xlink:href="#L" transform="matrix(1,0,0,1,2005.781329974682,532.1666666666667) translate(0 14.222222222222223)"/><g><use xlink:href="#M" transform="matrix(1,0,0,1,1874.0472306035538,737.8505000136031) translate(0 14.222222222222223)"/></g><path d="M2067.8 826.5h142.5a6 6 0 0 0 6-6V652.38" stroke="#3a414a" fill="none"/><path d="M2067.82 827h-.5v-1h.5z" stroke="#3a414a" stroke-width=".05" fill="#3a414a"/><path d="M2216.3 637.62l4.65 14.26h-9.27z" stroke="#3a414a" fill="#3a414a"/><g><use xlink:href="#N" transform="matrix(1,0,0,1,2071.730753305448,830.5) translate(0 14.222222222222223)"/></g><g><use xlink:href="#M" transform="matrix(1,0,0,1,2228.947370064432,644.3194509419037) translate(0 14.222222222222223)"/></g><path d="M2345.4 741.4h300v219h-300z" stroke="#333" stroke-width="2" fill="#fff"/><path d="M2345.4 779h300m-300 134.08h300" stroke="#333" stroke-width="2" fill="none"/><g><use xlink:href="#O" transform="matrix(1,0,0,1,2353.4079218353113,749.4048403449078) translate(111.55 14.6)"/></g><g><use xlink:href="#j" transform="matrix(1,0,0,1,2357.4079218353113,787.0048403449078) translate(0 19.89999999999999)"/><use xlink:href="#P" transform="matrix(1,0,0,1,2357.4079218353113,787.0048403449078) translate(10.95 19.89999999999999)"/><use xlink:href="#l" transform="matrix(1,0,0,1,2357.4079218353113,787.0048403449078) translate(48.849999999999994 19.89999999999999)"/><use xlink:href="#j" transform="matrix(1,0,0,1,2357.4079218353113,787.0048403449078) translate(0 41.49999999999999)"/><use xlink:href="#Q" transform="matrix(1,0,0,1,2357.4079218353113,787.0048403449078) translate(10.95 41.49999999999999)"/><use xlink:href="#l" transform="matrix(1,0,0,1,2357.4079218353113,787.0048403449078) translate(107.80000000000001 41.49999999999999)"/><use xlink:href="#j" transform="matrix(1,0,0,1,2357.4079218353113,787.0048403449078) translate(0 63.099999999999994)"/><use xlink:href="#R" transform="matrix(1,0,0,1,2357.4079218353113,787.0048403449078) translate(10.95 63.099999999999994)"/><use xlink:href="#S" transform="matrix(1,0,0,1,2357.4079218353113,787.0048403449078) translate(93.85000000000001 63.099999999999994)"/><use xlink:href="#j" transform="matrix(1,0,0,1,2357.4079218353113,787.0048403449078) translate(0 84.70000000000002)"/><use xlink:href="#T" transform="matrix(1,0,0,1,2357.4079218353113,787.0048403449078) translate(10.95 84.70000000000002)"/><use xlink:href="#S" transform="matrix(1,0,0,1,2357.4079218353113,787.0048403449078) translate(88.9 84.70000000000002)"/><use xlink:href="#j" transform="matrix(1,0,0,1,2357.4079218353113,787.0048403449078) translate(0 106.30000000000001)"/><use xlink:href="#U" transform="matrix(1,0,0,1,2357.4079218353113,787.0048403449078) translate(10.95 106.30000000000001)"/><use xlink:href="#q" transform="matrix(1,0,0,1,2357.4079218353113,787.0048403449078) translate(62.849999999999994 106.30000000000001)"/></g><path d="M2367.8 583.02h121.6a6 6 0 0 1 6 6v135" stroke="#3a414a" fill="none"/><path d="M2367.82 583.52h-.5v-1h.5z" stroke="#3a414a" stroke-width=".05" fill="#3a414a"/><path d="M2495.4 738.8l-4.63-14.28h9.27z" stroke="#3a414a" fill="#3a414a"/><g><use xlink:href="#V" transform="matrix(1,0,0,1,2375.1728395061727,587.0243657326471) translate(0 14.222222222222223)"/></g><g><use xlink:href="#K" transform="matrix(1,0,0,1,2456.1060002530203,719.7199760001548) translate(0 14.222222222222223)"/></g><path d="M2645.4 560h300v166h-300z" stroke="#333" stroke-width="2" fill="#fff"/><path d="M2645.4 619.2h300" stroke="#333" stroke-width="2" fill="none"/><g><use xlink:href="#A" transform="matrix(1,0,0,1,2653.4079218353113,568) translate(82.07499999999999 14.799999999999999)"/><use xlink:href="#W" transform="matrix(1,0,0,1,2653.4079218353113,568) translate(84.125 36.4)"/></g><g><use xlink:href="#X" transform="matrix(1,0,0,1,2657.4079218353113,627.2) translate(0 27.5)"/><use xlink:href="#Y" transform="matrix(1,0,0,1,2657.4079218353113,627.2) translate(0 49.1)"/><use xlink:href="#Z" transform="matrix(1,0,0,1,2657.4079218353113,627.2) translate(0 70.7)"/></g><path d="M2646.9 850.9h142.5a6 6 0 0 0 6-6V743.4" stroke="#3a414a" fill="none"/><path d="M2646.92 851.4h-.5v-1h.5z" stroke="#3a414a" stroke-width=".05" fill="#3a414a"/><path d="M2795.4 728.62l4.64 14.26h-9.27z" stroke="#3a414a" fill="#3a414a"/><g><use xlink:href="#aa" transform="matrix(1,0,0,1,2647.9322745312284,825.5715070115746) translate(0 14.222222222222223)"/></g><g><use xlink:href="#G" transform="matrix(1,0,0,1,2772.8961237098106,730.8069329217086) translate(0 14.222222222222223)"/></g><path d="M2495.4 961.9v33.5a6 6 0 0 1-6 6h-567.1a6 6 0 0 1-6-6V910.4" stroke="#3a414a" fill="none"/><path d="M2495.9 961.92h-1v-.5h1z" stroke="#3a414a" stroke-width=".05" fill="#3a414a"/><path d="M1916.3 895.62l4.65 14.26h-9.27z" stroke="#3a414a" fill="#3a414a"/><g><use xlink:href="#L" transform="matrix(1,0,0,1,2440.0992798600028,968.3333333333334) translate(0 14.222222222222223)"/></g><g><use xlink:href="#M" transform="matrix(1,0,0,1,1924.3121151488076,910.7287600069931) translate(0 14.222222222222223)"/></g><path d="M2067.8 877h260.22" stroke="#3a414a" fill="none"/><path d="M2067.82 877.5h-.5v-1h.5z" stroke="#3a414a" stroke-width=".05" fill="#3a414a"/><path d="M2342.8 877l-14.28 4.63v-9.26z" stroke="#3a414a" fill="#3a414a"/><g><use xlink:href="#ab" transform="matrix(1,0,0,1,2071.5061728395062,881) translate(0 14.222222222222223)"/></g><g><use xlink:href="#M" transform="matrix(1,0,0,1,2306.185185185185,885.6352549156242) translate(0 14.222222222222223)"/></g><defs><path fill="#a9afb8" d="M67-125c0 53 21 87 73 88 37 1 54-22 65-47l45 17C233-25 199 4 140 4 58 4 20-42 15-125 8-235 124-281 211-232c18 10 29 29 36 50l-46 12c-8-25-30-41-62-41-52 0-71 34-72 86" id="ac"/><path fill="#a9afb8" d="M25 0v-261h50V0H25" id="ad"/><path fill="#a9afb8" d="M133-34C117-15 103 5 69 4 32 3 11-16 11-54c-1-60 55-63 116-61 1-26-3-47-28-47-18 1-26 9-28 27l-52-2c7-38 36-58 82-57s74 22 75 68l1 82c-1 14 12 18 25 15v27c-30 8-71 5-69-32zm-48 3c29 0 43-24 42-57-32 0-66-3-65 30 0 17 8 27 23 27" id="ae"/><path fill="#a9afb8" d="M137-138c1-29-70-34-71-4 15 46 118 7 119 86 1 83-164 76-172 9l43-7c4 19 20 25 44 25 33 8 57-30 24-41C81-84 22-81 20-136c-2-80 154-74 161-7" id="af"/><g id="a"><use transform="matrix(0.0728395061728395,0,0,0.0728395061728395,0,0)" xlink:href="#ac"/><use transform="matrix(0.0728395061728395,0,0,0.0728395061728395,18.86543209876543,0)" xlink:href="#ad"/><use transform="matrix(0.0728395061728395,0,0,0.0728395061728395,26.14938271604938,0)" xlink:href="#ae"/><use transform="matrix(0.0728395061728395,0,0,0.0728395061728395,40.717283950617286,0)" xlink:href="#af"/><use transform="matrix(0.0728395061728395,0,0,0.0728395061728395,55.28518518518518,0)" xlink:href="#af"/></g><path fill="#a9afb8" d="M24-248c120-7 223 5 221 122C244-46 201 0 124 0H24v-248zM76-40c74 7 117-18 117-86 0-67-45-88-117-82v168" id="ag"/><path fill="#a9afb8" d="M25-224v-37h50v37H25zM25 0v-190h50V0H25" id="ah"/><path fill="#a9afb8" d="M195-6C206 82 75 100 31 46c-4-6-6-13-8-21l49-6c3 16 16 24 34 25 40 0 42-37 40-79-11 22-30 35-61 35-53 0-70-43-70-97 0-56 18-96 73-97 30 0 46 14 59 34l2-30h47zm-90-29c32 0 41-27 41-63 0-35-9-62-40-62-32 0-39 29-40 63 0 36 9 62 39 62" id="ai"/><path fill="#a9afb8" d="M135-150c-39-12-60 13-60 57V0H25l-1-190h47c2 13-1 29 3 40 6-28 27-53 61-41v41" id="aj"/><path fill="#a9afb8" d="M220-157c-53 9-28 100-34 157h-49v-107c1-27-5-49-29-50C55-147 81-57 75 0H25l-1-190h47c2 12-1 28 3 38 10-53 101-56 108 0 13-22 24-43 59-42 82 1 51 116 57 194h-49v-107c-1-25-5-48-29-50" id="ak"/><g id="b"><use transform="matrix(0.0728395061728395,0,0,0.0728395061728395,0,0)" xlink:href="#ag"/><use transform="matrix(0.0728395061728395,0,0,0.0728395061728395,18.86543209876543,0)" xlink:href="#ah"/><use transform="matrix(0.0728395061728395,0,0,0.0728395061728395,26.14938271604938,0)" xlink:href="#ae"/><use transform="matrix(0.0728395061728395,0,0,0.0728395061728395,40.717283950617286,0)" xlink:href="#ai"/><use transform="matrix(0.0728395061728395,0,0,0.0728395061728395,56.66913580246913,0)" xlink:href="#aj"/><use transform="matrix(0.0728395061728395,0,0,0.0728395061728395,66.86666666666666,0)" xlink:href="#ae"/><use transform="matrix(0.0728395061728395,0,0,0.0728395061728395,81.43456790123457,0)" xlink:href="#ak"/></g><path fill="#a9afb8" d="M240 0l2-218c-23 76-54 145-80 218h-23L58-218 59 0H30v-248h44l77 211c21-75 51-140 76-211h43V0h-30" id="al"/><path fill="#a9afb8" d="M141-36C126-15 110 5 73 4 37 3 15-17 15-53c-1-64 63-63 125-63 3-35-9-54-41-54-24 1-41 7-42 31l-33-3c5-37 33-52 76-52 45 0 72 20 72 64v82c-1 20 7 32 28 27v20c-31 9-61-2-59-35zM48-53c0 20 12 33 32 33 41-3 63-29 60-74-43 2-92-5-92 41" id="am"/><path fill="#a9afb8" d="M115-194c55 1 70 41 70 98S169 2 115 4C84 4 66-9 55-30l1 105H24l-1-265h31l2 30c10-21 28-34 59-34zm-8 174c40 0 45-34 45-75s-6-73-45-74c-42 0-51 32-51 76 0 43 10 73 51 73" id="an"/><path fill="#a9afb8" d="M75-87c-4 1-14 3-19 3V0H24v-190h32v83c26-2 31-21 43-41l26-42h33l-61 86L159 0h-35" id="ao"/><path fill="#a9afb8" d="M100-194c62-1 85 37 85 99 1 63-27 99-86 99S16-35 15-95c0-66 28-99 85-99zM99-20c44 1 53-31 53-75 0-43-8-75-51-75s-53 32-53 75 10 74 51 75" id="ap"/><g id="c"><use transform="matrix(0.04248971193415638,0,0,0.04248971193415638,0,0)" xlink:href="#al"/><use transform="matrix(0.04248971193415638,0,0,0.04248971193415638,12.874382716049382,0)" xlink:href="#am"/><use transform="matrix(0.04248971193415638,0,0,0.04248971193415638,21.37232510288066,0)" xlink:href="#an"/><use transform="matrix(0.04248971193415638,0,0,0.04248971193415638,29.87026748971193,0)" xlink:href="#ao"/><use transform="matrix(0.04248971193415638,0,0,0.04248971193415638,36.711111111111116,0)" xlink:href="#ap"/></g><path fill="#a9afb8" d="M206-28h31V72h-32V0H34v72H3V-28h25c38-50 38-143 51-220h127v220zm-32 0v-192h-66C95-156 94-78 66-28h108" id="aq"/><path fill="#a9afb8" d="M121-190v23H57V0H25v-190h96" id="ar"/><path fill="#a9afb8" d="M56-190L54-37l88-153h34V0h-30l2-153L59 0H25v-190h31" id="as"/><path fill="#a9afb8" d="M106-162C36-162 62-66 57 0H25v-212H2v-23h23v-26h32v26h52v23H57c0 20-4 43-1 61 12-21 28-36 61-36 87 0 54 110 60 187h-32v-114c2-32-8-49-39-48" id="at"/><path fill="#a9afb8" d="M100-194c63 0 86 42 84 106H49c0 40 14 67 53 68 26 1 43-12 49-29l28 8c-11 28-37 45-77 45C44 4 14-33 15-96c1-61 26-98 85-98zm52 81c6-60-76-77-97-28-3 7-6 17-6 28h103" id="au"/><path fill="#a9afb8" d="M176-55C176 11 93 0 25 0v-190c61 3 142-15 144 47 1 29-21 35-39 44 27 3 46 16 46 44zm-34 0c0-41-47-30-85-32v64c38-1 85 8 85-32zm-6-83c0-36-44-26-79-28v56c34-2 79 8 79-28" id="av"/><g id="d"><use transform="matrix(0.04248971193415638,0,0,0.04248971193415638,0,0)" xlink:href="#aq"/><use transform="matrix(0.04248971193415638,0,0,0.04248971193415638,10.325,0)" xlink:href="#an"/><use transform="matrix(0.04248971193415638,0,0,0.04248971193415638,18.822942386831272,0)" xlink:href="#am"/><use transform="matrix(0.04248971193415638,0,0,0.04248971193415638,27.32088477366255,0)" xlink:href="#ar"/><use transform="matrix(0.04248971193415638,0,0,0.04248971193415638,32.88703703703703,0)" xlink:href="#as"/><use transform="matrix(0.04248971193415638,0,0,0.04248971193415638,41.42746913580247,0)" xlink:href="#at"/><use transform="matrix(0.04248971193415638,0,0,0.04248971193415638,49.925411522633745,0)" xlink:href="#au"/><use transform="matrix(0.04248971193415638,0,0,0.04248971193415638,58.42335390946502,0)" xlink:href="#av"/><use transform="matrix(0.04248971193415638,0,0,0.04248971193415638,66.53888888888889,0)" xlink:href="#as"/><use transform="matrix(0.04248971193415638,0,0,0.04248971193415638,75.07932098765433,0)" xlink:href="#at"/></g><path fill="#a9afb8" d="M32 76v-337h29V76H32" id="aw"/><use transform="matrix(0.04248971193415638,0,0,0.04248971193415638,0,0)" xlink:href="#aw" id="e"/><path fill="#a9afb8" d="M205 0l-28-72H64L36 0H1l101-248h38L239 0h-34zm-38-99l-47-123c-12 45-31 82-46 123h93" id="ax"/><path fill="#a9afb8" d="M84 4C-5 8 30-112 23-190h32v120c0 31 7 50 39 49 72-2 45-101 50-169h31l1 190h-30c-1-10 1-25-2-33-11 22-28 36-60 37" id="ay"/><path fill="#a9afb8" d="M177-190C167-65 218 103 67 71c-23-6-38-20-44-43l32-5c15 47 100 32 89-28v-30C133-14 115 1 83 1 29 1 15-40 15-95c0-56 16-97 71-98 29-1 48 16 59 35 1-10 0-23 2-32h30zM94-22c36 0 50-32 50-73 0-42-14-75-50-75-39 0-46 34-46 75s6 73 46 73" id="az"/><path fill="#a9afb8" d="M135-143c-3-34-86-38-87 0 15 53 115 12 119 90S17 21 10-45l28-5c4 36 97 45 98 0-10-56-113-15-118-90-4-57 82-63 122-42 12 7 21 19 24 35" id="aA"/><path fill="#a9afb8" d="M59-47c-2 24 18 29 38 22v24C64 9 27 4 27-40v-127H5v-23h24l9-43h21v43h35v23H59v120" id="aB"/><g id="f"><use transform="matrix(0.04248971193415638,0,0,0.04248971193415638,0,0)" xlink:href="#ax"/><use transform="matrix(0.04248971193415638,0,0,0.04248971193415638,10.19753086419753,0)" xlink:href="#ay"/><use transform="matrix(0.04248971193415638,0,0,0.04248971193415638,18.695473251028805,0)" xlink:href="#az"/><use transform="matrix(0.04248971193415638,0,0,0.04248971193415638,27.193415637860078,0)" xlink:href="#ay"/><use transform="matrix(0.04248971193415638,0,0,0.04248971193415638,35.691358024691354,0)" xlink:href="#aA"/><use transform="matrix(0.04248971193415638,0,0,0.04248971193415638,43.3395061728395,0)" xlink:href="#aB"/></g><path fill="#a9afb8" d="M126-127c33 6 58 20 58 59 0 88-139 92-164 29-3-8-5-16-6-25l32-3c6 27 21 44 54 44 32 0 52-15 52-46 0-38-36-46-79-43v-28c39 1 72-4 72-42 0-27-17-43-46-43-28 0-47 15-49 41l-32-3c6-42 35-63 81-64 48-1 79 21 79 65 0 36-21 52-52 59" id="aC"/><path fill="#a9afb8" d="M101-251c68 0 85 55 85 127S166 4 100 4C33 4 14-52 14-124c0-73 17-127 87-127zm-1 229c47 0 54-49 54-102s-4-102-53-102c-51 0-55 48-55 102 0 53 5 102 54 102" id="aD"/><path fill="#a9afb8" d="M68-38c1 34 0 65-14 84H32c9-13 17-26 17-46H33v-38h35" id="aE"/><g id="g"><use transform="matrix(0.04248971193415638,0,0,0.04248971193415638,0,0)" xlink:href="#aC"/><use transform="matrix(0.04248971193415638,0,0,0.04248971193415638,8.497942386831275,0)" xlink:href="#aD"/><use transform="matrix(0.04248971193415638,0,0,0.04248971193415638,16.99588477366255,0)" xlink:href="#aE"/></g><path fill="#a9afb8" d="M101-251c82-7 93 87 43 132L82-64C71-53 59-42 53-27h129V0H18c2-99 128-94 128-182 0-28-16-43-45-43s-46 15-49 41l-32-3c6-41 34-60 81-64" id="aF"/><g id="h"><use transform="matrix(0.04248971193415638,0,0,0.04248971193415638,0,0)" xlink:href="#aF"/><use transform="matrix(0.04248971193415638,0,0,0.04248971193415638,8.497942386831275,0)" xlink:href="#aD"/><use transform="matrix(0.04248971193415638,0,0,0.04248971193415638,16.99588477366255,0)" xlink:href="#aF"/><use transform="matrix(0.04248971193415638,0,0,0.04248971193415638,25.493827160493822,0)" xlink:href="#aC"/></g><path fill="#333" d="M76-105c-23 59 45 89 88 55 12-10 18-24 22-45l30-153h51C238-143 259 4 118 4 48 4 11-39 25-112l26-136h52" id="aG"/><path fill="#333" d="M144-137c-1-29-70-35-71-2 16 41 103 10 103 80C176 9 79 16 32-9 18-17 9-31 4-48l44-6c3 32 80 36 82 1-15-42-103-11-103-82 0-77 157-79 161-8" id="aH"/><path fill="#333" d="M114-194c63-2 87 48 72 110H63c-3 28 1 55 31 54 21-1 32-13 37-29l44 13C160-14 137 4 91 4 41 4 11-22 11-73c0-71 33-119 103-121zm30 77c14-47-50-61-67-22-3 6-6 13-8 22h75" id="aI"/><path fill="#333" d="M84-151c13-25 34-51 72-40l-8 41C67-170 71-64 56 0H6l36-190h47" id="aJ"/><g id="i"><use transform="matrix(0.05,0,0,0.05,0,0)" xlink:href="#aG"/><use transform="matrix(0.05,0,0,0.05,12.950000000000001,0)" xlink:href="#aH"/><use transform="matrix(0.05,0,0,0.05,22.950000000000003,0)" xlink:href="#aI"/><use transform="matrix(0.05,0,0,0.05,32.95,0)" xlink:href="#aJ"/></g><path fill="#333" d="M16-82v-28h88v28H16" id="aK"/><use transform="matrix(0.05,0,0,0.05,0,0)" xlink:href="#aK" id="j"/><path fill="#333" d="M101-234c-31-9-42 10-38 44h38v23H63V0H32v-167H5v-23h27c-7-52 17-82 69-68v24" id="aL"/><path fill="#333" d="M24-231v-30h32v30H24zM24 0v-190h32V0H24" id="aM"/><path fill="#333" d="M114-163C36-179 61-72 57 0H25l-1-190h30c1 12-1 29 2 39 6-27 23-49 58-41v29" id="aN"/><path fill="#333" d="M135-143c-3-34-86-38-87 0 15 53 115 12 119 90S17 21 10-45l28-5c4 36 97 45 98 0-10-56-113-15-118-90-4-57 82-63 122-42 12 7 21 19 24 35" id="aO"/><path fill="#333" d="M59-47c-2 24 18 29 38 22v24C64 9 27 4 27-40v-127H5v-23h24l9-43h21v43h35v23H59v120" id="aP"/><path fill="#333" d="M190 0L58-211 59 0H30v-248h39L202-35l-2-213h31V0h-41" id="aQ"/><path fill="#333" d="M141-36C126-15 110 5 73 4 37 3 15-17 15-53c-1-64 63-63 125-63 3-35-9-54-41-54-24 1-41 7-42 31l-33-3c5-37 33-52 76-52 45 0 72 20 72 64v82c-1 20 7 32 28 27v20c-31 9-61-2-59-35zM48-53c0 20 12 33 32 33 41-3 63-29 60-74-43 2-92-5-92 41" id="aR"/><path fill="#333" d="M210-169c-67 3-38 105-44 169h-31v-121c0-29-5-50-35-48C34-165 62-65 56 0H25l-1-190h30c1 10-1 24 2 32 10-44 99-50 107 0 11-21 27-35 58-36 85-2 47 119 55 194h-31v-121c0-29-5-49-35-48" id="aS"/><path fill="#333" d="M100-194c63 0 86 42 84 106H49c0 40 14 67 53 68 26 1 43-12 49-29l28 8c-11 28-37 45-77 45C44 4 14-33 15-96c1-61 26-98 85-98zm52 81c6-60-76-77-97-28-3 7-6 17-6 28h103" id="aT"/><path fill="#333" d="M33-154v-36h34v36H33zM33 0v-36h34V0H33" id="aU"/><g id="k"><use transform="matrix(0.05,0,0,0.05,0,0)" xlink:href="#aL"/><use transform="matrix(0.05,0,0,0.05,5,0)" xlink:href="#aM"/><use transform="matrix(0.05,0,0,0.05,8.95,0)" xlink:href="#aN"/><use transform="matrix(0.05,0,0,0.05,14.899999999999999,0)" xlink:href="#aO"/><use transform="matrix(0.05,0,0,0.05,23.9,0)" xlink:href="#aP"/><use transform="matrix(0.05,0,0,0.05,28.899999999999995,0)" xlink:href="#aQ"/><use transform="matrix(0.05,0,0,0.05,41.85,0)" xlink:href="#aR"/><use transform="matrix(0.05,0,0,0.05,51.85,0)" xlink:href="#aS"/><use transform="matrix(0.05,0,0,0.05,66.8,0)" xlink:href="#aT"/><use transform="matrix(0.05,0,0,0.05,76.8,0)" xlink:href="#aU"/></g><path fill="#333" d="M185-189c-5-48-123-54-124 2 14 75 158 14 163 119 3 78-121 87-175 55-17-10-28-26-33-46l33-7c5 56 141 63 141-1 0-78-155-14-162-118-5-82 145-84 179-34 5 7 8 16 11 25" id="aV"/><path fill="#333" d="M117-194c89-4 53 116 60 194h-32v-121c0-31-8-49-39-48C34-167 62-67 57 0H25l-1-190h30c1 10-1 24 2 32 11-22 29-35 61-36" id="aW"/><path fill="#333" d="M177-190C167-65 218 103 67 71c-23-6-38-20-44-43l32-5c15 47 100 32 89-28v-30C133-14 115 1 83 1 29 1 15-40 15-95c0-56 16-97 71-98 29-1 48 16 59 35 1-10 0-23 2-32h30zM94-22c36 0 50-32 50-73 0-42-14-75-50-75-39 0-46 34-46 75s6 73 46 73" id="aX"/><g id="l"><use transform="matrix(0.05,0,0,0.05,0,0)" xlink:href="#aV"/><use transform="matrix(0.05,0,0,0.05,12,0)" xlink:href="#aP"/><use transform="matrix(0.05,0,0,0.05,17,0)" xlink:href="#aN"/><use transform="matrix(0.05,0,0,0.05,22.95,0)" xlink:href="#aM"/><use transform="matrix(0.05,0,0,0.05,26.899999999999995,0)" xlink:href="#aW"/><use transform="matrix(0.05,0,0,0.05,36.9,0)" xlink:href="#aX"/></g><path fill="#333" d="M24 0v-261h32V0H24" id="aY"/><g id="m"><use transform="matrix(0.05,0,0,0.05,0,0)" xlink:href="#aY"/><use transform="matrix(0.05,0,0,0.05,3.95,0)" xlink:href="#aR"/><use transform="matrix(0.05,0,0,0.05,13.949999999999998,0)" xlink:href="#aO"/><use transform="matrix(0.05,0,0,0.05,22.95,0)" xlink:href="#aP"/><use transform="matrix(0.05,0,0,0.05,27.950000000000003,0)" xlink:href="#aQ"/><use transform="matrix(0.05,0,0,0.05,40.9,0)" xlink:href="#aR"/><use transform="matrix(0.05,0,0,0.05,50.9,0)" xlink:href="#aS"/><use transform="matrix(0.05,0,0,0.05,65.85,0)" xlink:href="#aT"/><use transform="matrix(0.05,0,0,0.05,75.85,0)" xlink:href="#aU"/></g><path fill="#333" d="M85-194c31 0 48 13 60 33l-1-100h32l1 261h-30c-2-10 0-23-3-31C134-8 116 4 85 4 32 4 16-35 15-94c0-66 23-100 70-100zm9 24c-40 0-46 34-46 75 0 40 6 74 45 74 42 0 51-32 51-76 0-42-9-74-50-73" id="aZ"/><g id="n"><use transform="matrix(0.05,0,0,0.05,0,0)" xlink:href="#aR"/><use transform="matrix(0.05,0,0,0.05,10,0)" xlink:href="#aZ"/><use transform="matrix(0.05,0,0,0.05,20,0)" xlink:href="#aZ"/><use transform="matrix(0.05,0,0,0.05,30,0)" xlink:href="#aN"/><use transform="matrix(0.05,0,0,0.05,35.95,0)" xlink:href="#aT"/><use transform="matrix(0.05,0,0,0.05,45.95,0)" xlink:href="#aO"/><use transform="matrix(0.05,0,0,0.05,54.95,0)" xlink:href="#aO"/><use transform="matrix(0.05,0,0,0.05,63.95,0)" xlink:href="#aU"/></g><g id="o"><use transform="matrix(0.05,0,0,0.05,0,0)" xlink:href="#aT"/><use transform="matrix(0.05,0,0,0.05,10,0)" xlink:href="#aS"/><use transform="matrix(0.05,0,0,0.05,24.950000000000003,0)" xlink:href="#aR"/><use transform="matrix(0.05,0,0,0.05,34.95,0)" xlink:href="#aM"/><use transform="matrix(0.05,0,0,0.05,38.900000000000006,0)" xlink:href="#aY"/><use transform="matrix(0.05,0,0,0.05,42.85000000000001,0)" xlink:href="#aU"/></g><path fill="#333" d="M115-194c55 1 70 41 70 98S169 2 115 4C84 4 66-9 55-30l1 105H24l-1-265h31l2 30c10-21 28-34 59-34zm-8 174c40 0 45-34 45-75s-6-73-45-74c-42 0-51 32-51 76 0 43 10 73 51 73" id="ba"/><path fill="#333" d="M206 0h-36l-40-164L89 0H53L-1-190h32L70-26l43-164h34l41 164 42-164h31" id="bb"/><path fill="#333" d="M100-194c62-1 85 37 85 99 1 63-27 99-86 99S16-35 15-95c0-66 28-99 85-99zM99-20c44 1 53-31 53-75 0-43-8-75-51-75s-53 32-53 75 10 74 51 75" id="bc"/><g id="p"><use transform="matrix(0.05,0,0,0.05,0,0)" xlink:href="#ba"/><use transform="matrix(0.05,0,0,0.05,10,0)" xlink:href="#aR"/><use transform="matrix(0.05,0,0,0.05,20,0)" xlink:href="#aO"/><use transform="matrix(0.05,0,0,0.05,29,0)" xlink:href="#aO"/><use transform="matrix(0.05,0,0,0.05,38,0)" xlink:href="#bb"/><use transform="matrix(0.05,0,0,0.05,50.95,0)" xlink:href="#bc"/><use transform="matrix(0.05,0,0,0.05,60.95,0)" xlink:href="#aN"/><use transform="matrix(0.05,0,0,0.05,66.9,0)" xlink:href="#aZ"/><use transform="matrix(0.05,0,0,0.05,76.9,0)" xlink:href="#aU"/></g><g id="q"><use transform="matrix(0.05,0,0,0.05,0,0)" xlink:href="#aV"/><use transform="matrix(0.05,0,0,0.05,12,0)" xlink:href="#aP"/><use transform="matrix(0.05,0,0,0.05,17,0)" xlink:href="#aN"/><use transform="matrix(0.05,0,0,0.05,22.95,0)" xlink:href="#aM"/><use transform="matrix(0.05,0,0,0.05,26.899999999999995,0)" xlink:href="#aW"/><use transform="matrix(0.05,0,0,0.05,36.9,0)" xlink:href="#aX"/></g><path fill="#333" d="M230 0l2-204L168 0h-37L68-204 70 0H24v-248h70l56 185 57-185h69V0h-46" id="bd"/><path fill="#333" d="M133-34C117-15 103 5 69 4 32 3 11-16 11-54c-1-60 55-63 116-61 1-26-3-47-28-47-18 1-26 9-28 27l-52-2c7-38 36-58 82-57s74 22 75 68l1 82c-1 14 12 18 25 15v27c-30 8-71 5-69-32zm-48 3c29 0 43-24 42-57-32 0-66-3-65 30 0 17 8 27 23 27" id="be"/><path fill="#333" d="M135-194c87-1 58 113 63 194h-50c-7-57 23-157-34-157-59 0-34 97-39 157H25l-1-190h47c2 12-1 28 3 38 12-26 28-41 61-42" id="bf"/><path fill="#333" d="M195-6C206 82 75 100 31 46c-4-6-6-13-8-21l49-6c3 16 16 24 34 25 40 0 42-37 40-79-11 22-30 35-61 35-53 0-70-43-70-97 0-56 18-96 73-97 30 0 46 14 59 34l2-30h47zm-90-29c32 0 41-27 41-63 0-35-9-62-40-62-32 0-39 29-40 63 0 36 9 62 39 62" id="bg"/><path fill="#333" d="M185-48c-13 30-37 53-82 52C43 2 14-33 14-96s30-98 90-98c62 0 83 45 84 108H66c0 31 8 55 39 56 18 0 30-7 34-22zm-45-69c5-46-57-63-70-21-2 6-4 13-4 21h74" id="bh"/><path fill="#333" d="M135-150c-39-12-60 13-60 57V0H25l-1-190h47c2 13-1 29 3 40 6-28 27-53 61-41v41" id="bi"/><g id="r"><use transform="matrix(0.05,0,0,0.05,0,0)" xlink:href="#bd"/><use transform="matrix(0.05,0,0,0.05,14.950000000000001,0)" xlink:href="#be"/><use transform="matrix(0.05,0,0,0.05,24.950000000000003,0)" xlink:href="#bf"/><use transform="matrix(0.05,0,0,0.05,35.900000000000006,0)" xlink:href="#be"/><use transform="matrix(0.05,0,0,0.05,45.900000000000006,0)" xlink:href="#bg"/><use transform="matrix(0.05,0,0,0.05,56.85,0)" xlink:href="#bh"/><use transform="matrix(0.05,0,0,0.05,66.85000000000001,0)" xlink:href="#bi"/></g><path fill="#333" d="M118-107v75H92v-75H18v-26h74v-75h26v75h74v26h-74" id="bj"/><use transform="matrix(0.05,0,0,0.05,0,0)" xlink:href="#bj" id="s"/><path fill="#333" d="M30 0v-248h187v28H63v79h144v27H63v87h162V0H30" id="bk"/><path fill="#333" d="M179-190L93 31C79 59 56 82 12 73V49c39 6 53-20 64-50L1-190h34L92-34l54-156h33" id="bl"/><path fill="#333" d="M87 75C49 33 22-17 22-94c0-76 28-126 65-167h31c-38 41-64 92-64 168S80 34 118 75H87" id="bm"/><path fill="#333" d="M33-261c38 41 65 92 65 168S71 34 33 75H2C39 34 66-17 66-93S39-220 2-261h31" id="bn"/><g id="t"><use transform="matrix(0.05,0,0,0.05,0,0)" xlink:href="#aS"/><use transform="matrix(0.05,0,0,0.05,14.950000000000001,0)" xlink:href="#aR"/><use transform="matrix(0.05,0,0,0.05,24.950000000000003,0)" xlink:href="#aW"/><use transform="matrix(0.05,0,0,0.05,34.95,0)" xlink:href="#aR"/><use transform="matrix(0.05,0,0,0.05,44.95,0)" xlink:href="#aX"/><use transform="matrix(0.05,0,0,0.05,54.95,0)" xlink:href="#aT"/><use transform="matrix(0.05,0,0,0.05,64.95,0)" xlink:href="#bk"/><use transform="matrix(0.05,0,0,0.05,76.95,0)" xlink:href="#aS"/><use transform="matrix(0.05,0,0,0.05,91.9,0)" xlink:href="#ba"/><use transform="matrix(0.05,0,0,0.05,101.9,0)" xlink:href="#aY"/><use transform="matrix(0.05,0,0,0.05,105.85000000000001,0)" xlink:href="#bc"/><use transform="matrix(0.05,0,0,0.05,115.85000000000001,0)" xlink:href="#bl"/><use transform="matrix(0.05,0,0,0.05,124.85000000000001,0)" xlink:href="#aT"/><use transform="matrix(0.05,0,0,0.05,134.85000000000002,0)" xlink:href="#aT"/><use transform="matrix(0.05,0,0,0.05,144.85000000000002,0)" xlink:href="#aO"/><use transform="matrix(0.05,0,0,0.05,153.85000000000002,0)" xlink:href="#bm"/><use transform="matrix(0.05,0,0,0.05,159.8,0)" xlink:href="#bn"/></g><path fill="#333" d="M127-220V0H93v-220H8v-28h204v28h-85" id="bo"/><g id="u"><use transform="matrix(0.05,0,0,0.05,0,0)" xlink:href="#aS"/><use transform="matrix(0.05,0,0,0.05,14.950000000000001,0)" xlink:href="#aR"/><use transform="matrix(0.05,0,0,0.05,24.950000000000003,0)" xlink:href="#aW"/><use transform="matrix(0.05,0,0,0.05,34.95,0)" xlink:href="#aR"/><use transform="matrix(0.05,0,0,0.05,44.95,0)" xlink:href="#aX"/><use transform="matrix(0.05,0,0,0.05,54.95,0)" xlink:href="#aT"/><use transform="matrix(0.05,0,0,0.05,64.95,0)" xlink:href="#bo"/><use transform="matrix(0.05,0,0,0.05,73.9,0)" xlink:href="#aT"/><use transform="matrix(0.05,0,0,0.05,83.9,0)" xlink:href="#aR"/><use transform="matrix(0.05,0,0,0.05,93.9,0)" xlink:href="#aS"/><use transform="matrix(0.05,0,0,0.05,108.85000000000001,0)" xlink:href="#aO"/><use transform="matrix(0.05,0,0,0.05,117.85000000000001,0)" xlink:href="#bm"/><use transform="matrix(0.05,0,0,0.05,123.80000000000001,0)" xlink:href="#bn"/></g><path fill="#333" d="M30-248c87 1 191-15 191 75 0 78-77 80-158 76V0H30v-248zm33 125c57 0 124 11 124-50 0-59-68-47-124-48v98" id="bp"/><path fill="#333" d="M24-231v-30h32v30H24zM-9 49c24 4 33-6 33-30v-209h32V24c2 40-23 58-65 49V49" id="bq"/><path fill="#333" d="M96-169c-40 0-48 33-48 73s9 75 48 75c24 0 41-14 43-38l32 2c-6 37-31 61-74 61-59 0-76-41-82-99-10-93 101-131 147-64 4 7 5 14 7 22l-32 3c-4-21-16-35-41-35" id="br"/><g id="v"><use transform="matrix(0.05,0,0,0.05,0,0)" xlink:href="#aS"/><use transform="matrix(0.05,0,0,0.05,14.950000000000001,0)" xlink:href="#aR"/><use transform="matrix(0.05,0,0,0.05,24.950000000000003,0)" xlink:href="#aW"/><use transform="matrix(0.05,0,0,0.05,34.95,0)" xlink:href="#aR"/><use transform="matrix(0.05,0,0,0.05,44.95,0)" xlink:href="#aX"/><use transform="matrix(0.05,0,0,0.05,54.95,0)" xlink:href="#aT"/><use transform="matrix(0.05,0,0,0.05,64.95,0)" xlink:href="#bp"/><use transform="matrix(0.05,0,0,0.05,76.95,0)" xlink:href="#aN"/><use transform="matrix(0.05,0,0,0.05,82.9,0)" xlink:href="#bc"/><use transform="matrix(0.05,0,0,0.05,92.9,0)" xlink:href="#bq"/><use transform="matrix(0.05,0,0,0.05,96.85000000000001,0)" xlink:href="#aT"/><use transform="matrix(0.05,0,0,0.05,106.85000000000001,0)" xlink:href="#br"/><use transform="matrix(0.05,0,0,0.05,115.85000000000001,0)" xlink:href="#aP"/><use transform="matrix(0.05,0,0,0.05,120.85000000000001,0)" xlink:href="#aO"/><use transform="matrix(0.05,0,0,0.05,129.85000000000002,0)" xlink:href="#bm"/><use transform="matrix(0.05,0,0,0.05,135.8,0)" xlink:href="#bn"/></g><path fill="#333" d="M24 0v-248h195v40H76v63h132v40H76v65h150V0H24" id="bs"/><path fill="#333" d="M220-157c-53 9-28 100-34 157h-49v-107c1-27-5-49-29-50C55-147 81-57 75 0H25l-1-190h47c2 12-1 28 3 38 10-53 101-56 108 0 13-22 24-43 59-42 82 1 51 116 57 194h-49v-107c-1-25-5-48-29-50" id="bt"/><path fill="#333" d="M135-194c53 0 70 44 70 98 0 56-19 98-73 100-31 1-45-17-59-34 3 33 2 69 2 105H25l-1-265h48c2 10 0 23 3 31 11-24 29-35 60-35zM114-30c33 0 39-31 40-66 0-38-9-64-40-64-56 0-55 130 0 130" id="bu"/><path fill="#333" d="M25 0v-261h50V0H25" id="bv"/><path fill="#333" d="M110-194c64 0 96 36 96 99 0 64-35 99-97 99-61 0-95-36-95-99 0-62 34-99 96-99zm-1 164c35 0 45-28 45-65 0-40-10-65-43-65-34 0-45 26-45 65 0 36 10 65 43 65" id="bw"/><path fill="#333" d="M123 10C108 53 80 86 19 72V37c35 8 53-11 59-39L3-190h52l48 148c12-52 28-100 44-148h51" id="bx"/><g id="w"><use transform="matrix(0.05,0,0,0.05,0,0)" xlink:href="#bs"/><use transform="matrix(0.05,0,0,0.05,12,0)" xlink:href="#bt"/><use transform="matrix(0.05,0,0,0.05,28,0)" xlink:href="#bu"/><use transform="matrix(0.05,0,0,0.05,38.95,0)" xlink:href="#bv"/><use transform="matrix(0.05,0,0,0.05,43.95,0)" xlink:href="#bw"/><use transform="matrix(0.05,0,0,0.05,54.900000000000006,0)" xlink:href="#bx"/><use transform="matrix(0.05,0,0,0.05,64.9,0)" xlink:href="#bh"/><use transform="matrix(0.05,0,0,0.05,74.9,0)" xlink:href="#bh"/></g><path fill="#333" d="M30 0v-248h33v221h125V0H30" id="by"/><g id="x"><use transform="matrix(0.05,0,0,0.05,0,0)" xlink:href="#aM"/><use transform="matrix(0.05,0,0,0.05,3.95,0)" xlink:href="#aO"/><use transform="matrix(0.05,0,0,0.05,12.949999999999998,0)" xlink:href="#by"/><use transform="matrix(0.05,0,0,0.05,22.95,0)" xlink:href="#aT"/><use transform="matrix(0.05,0,0,0.05,32.95,0)" xlink:href="#aR"/><use transform="matrix(0.05,0,0,0.05,42.95,0)" xlink:href="#aZ"/><use transform="matrix(0.05,0,0,0.05,52.95,0)" xlink:href="#aU"/></g><path fill="#333" d="M160-131c35 5 61 23 61 61C221 17 115-2 30 0v-248c76 3 177-17 177 60 0 33-19 50-47 57zm-97-11c50-1 110 9 110-42 0-47-63-36-110-37v79zm0 115c55-2 124 14 124-45 0-56-70-42-124-44v89" id="bz"/><g id="y"><use transform="matrix(0.05,0,0,0.05,0,0)" xlink:href="#bz"/><use transform="matrix(0.05,0,0,0.05,12,0)" xlink:href="#bc"/><use transform="matrix(0.05,0,0,0.05,22,0)" xlink:href="#bc"/><use transform="matrix(0.05,0,0,0.05,32,0)" xlink:href="#aY"/><use transform="matrix(0.05,0,0,0.05,35.95,0)" xlink:href="#aT"/><use transform="matrix(0.05,0,0,0.05,45.95,0)" xlink:href="#aR"/><use transform="matrix(0.05,0,0,0.05,55.95,0)" xlink:href="#aW"/></g><g id="z"><use transform="matrix(0.05,0,0,0.05,0,0)" xlink:href="#ba"/><use transform="matrix(0.05,0,0,0.05,10,0)" xlink:href="#bc"/><use transform="matrix(0.05,0,0,0.05,20,0)" xlink:href="#aO"/><use transform="matrix(0.05,0,0,0.05,29,0)" xlink:href="#aM"/><use transform="matrix(0.05,0,0,0.05,32.95,0)" xlink:href="#aP"/><use transform="matrix(0.05,0,0,0.05,37.95,0)" xlink:href="#aM"/><use transform="matrix(0.05,0,0,0.05,41.900000000000006,0)" xlink:href="#bc"/><use transform="matrix(0.05,0,0,0.05,51.900000000000006,0)" xlink:href="#aW"/><use transform="matrix(0.05,0,0,0.05,61.900000000000006,0)" xlink:href="#aU"/></g><path fill="#333" d="M156-25L96-89v-11l60-65h29v5l-59 66 60 64v5h-30zm-82 0L15-89v-11l59-65h29v5L44-94l59 64v5H74" id="bA"/><path fill="#333" d="M84 4C-5 8 30-112 23-190h32v120c0 31 7 50 39 49 72-2 45-101 50-169h31l1 190h-30c-1-10 1-25-2-33-11 22-28 36-60 37" id="bB"/><path fill="#333" d="M126-25H97v-5l59-64-59-66v-5h29l60 65v11zm-82 0H15v-5l59-64-59-66v-5h29l59 65v11" id="bC"/><g id="A"><use transform="matrix(0.05,0,0,0.05,0,0)" xlink:href="#bA"/><use transform="matrix(0.05,0,0,0.05,10,0)" xlink:href="#aT"/><use transform="matrix(0.05,0,0,0.05,20,0)" xlink:href="#aW"/><use transform="matrix(0.05,0,0,0.05,30,0)" xlink:href="#bB"/><use transform="matrix(0.05,0,0,0.05,40,0)" xlink:href="#aS"/><use transform="matrix(0.05,0,0,0.05,54.95,0)" xlink:href="#aT"/><use transform="matrix(0.05,0,0,0.05,64.95,0)" xlink:href="#aN"/><use transform="matrix(0.05,0,0,0.05,70.9,0)" xlink:href="#aR"/><use transform="matrix(0.05,0,0,0.05,80.9,0)" xlink:href="#aP"/><use transform="matrix(0.05,0,0,0.05,85.9,0)" xlink:href="#aM"/><use transform="matrix(0.05,0,0,0.05,89.85000000000001,0)" xlink:href="#bc"/><use transform="matrix(0.05,0,0,0.05,99.85000000000001,0)" xlink:href="#aW"/><use transform="matrix(0.05,0,0,0.05,109.85000000000001,0)" xlink:href="#bC"/></g><path fill="#333" d="M169-182c-1-43-94-46-97-3 18 66 151 10 154 114 3 95-165 93-204 36-6-8-10-19-12-30l50-8c3 46 112 56 116 5-17-69-150-10-154-114-4-87 153-88 188-35 5 8 8 18 10 28" id="bD"/><path fill="#333" d="M25-224v-37h50v37H25zM25 0v-190h50V0H25" id="bE"/><path fill="#333" d="M115-3C79 11 28 4 28-45v-112H4v-33h27l15-45h31v45h36v33H77v99c-1 23 16 31 38 25v30" id="bF"/><g id="B"><use transform="matrix(0.05,0,0,0.05,0,0)" xlink:href="#bD"/><use transform="matrix(0.05,0,0,0.05,12,0)" xlink:href="#bh"/><use transform="matrix(0.05,0,0,0.05,22,0)" xlink:href="#bf"/><use transform="matrix(0.05,0,0,0.05,32.95,0)" xlink:href="#bE"/><use transform="matrix(0.05,0,0,0.05,37.95,0)" xlink:href="#bw"/><use transform="matrix(0.05,0,0,0.05,48.900000000000006,0)" xlink:href="#bi"/><use transform="matrix(0.05,0,0,0.05,55.900000000000006,0)" xlink:href="#bE"/><use transform="matrix(0.05,0,0,0.05,60.900000000000006,0)" xlink:href="#bF"/><use transform="matrix(0.05,0,0,0.05,66.85000000000001,0)" xlink:href="#bx"/></g><path fill="#333" d="M153-248C145-148 188 4 80 4 36 3 13-21 6-62l32-5c4 25 16 42 43 43 27 0 39-20 39-49v-147H72v-28h81" id="bG"/><path fill="#333" d="M232-93c-1 65-40 97-104 97C67 4 28-28 28-90v-158h33c8 89-33 224 67 224 102 0 64-133 71-224h33v155" id="bH"/><path fill="#333" d="M33 0v-248h34V0H33" id="bI"/><path fill="#333" d="M140-251c81 0 123 46 123 126C263-46 219 4 140 4 59 4 17-45 17-125s42-126 123-126zm0 227c63 0 89-41 89-101s-29-99-89-99c-61 0-89 39-89 99S79-25 140-24" id="bJ"/><path fill="#333" d="M233-177c-1 41-23 64-60 70L243 0h-38l-65-103H63V0H30v-248c88 3 205-21 203 71zM63-129c60-2 137 13 137-47 0-61-80-42-137-45v92" id="bK"/><g id="C"><use transform="matrix(0.05,0,0,0.05,0,0)" xlink:href="#bG"/><use transform="matrix(0.05,0,0,0.05,9,0)" xlink:href="#bH"/><use transform="matrix(0.05,0,0,0.05,21.950000000000003,0)" xlink:href="#aQ"/><use transform="matrix(0.05,0,0,0.05,34.900000000000006,0)" xlink:href="#bI"/><use transform="matrix(0.05,0,0,0.05,39.900000000000006,0)" xlink:href="#bJ"/><use transform="matrix(0.05,0,0,0.05,53.900000000000006,0)" xlink:href="#bK"/></g><path fill="#333" d="M240 0l2-218c-23 76-54 145-80 218h-23L58-218 59 0H30v-248h44l77 211c21-75 51-140 76-211h43V0h-30" id="bL"/><path fill="#333" d="M30-248c118-7 216 8 213 122C240-48 200 0 122 0H30v-248zM63-27c89 8 146-16 146-99s-60-101-146-95v194" id="bM"/><g id="D"><use transform="matrix(0.05,0,0,0.05,0,0)" xlink:href="#bL"/><use transform="matrix(0.05,0,0,0.05,14.950000000000001,0)" xlink:href="#bk"/><use transform="matrix(0.05,0,0,0.05,26.950000000000003,0)" xlink:href="#bM"/><use transform="matrix(0.05,0,0,0.05,39.900000000000006,0)" xlink:href="#bI"/><use transform="matrix(0.05,0,0,0.05,44.900000000000006,0)" xlink:href="#bJ"/><use transform="matrix(0.05,0,0,0.05,58.900000000000006,0)" xlink:href="#bK"/></g><g id="E"><use transform="matrix(0.05,0,0,0.05,0,0)" xlink:href="#aV"/><use transform="matrix(0.05,0,0,0.05,12,0)" xlink:href="#bk"/><use transform="matrix(0.05,0,0,0.05,24,0)" xlink:href="#aQ"/><use transform="matrix(0.05,0,0,0.05,36.95,0)" xlink:href="#bI"/><use transform="matrix(0.05,0,0,0.05,41.95,0)" xlink:href="#bJ"/><use transform="matrix(0.05,0,0,0.05,55.95,0)" xlink:href="#bK"/></g><path fill="#333" d="M14-72v-43h91v43H14" id="bN"/><path fill="#333" d="M137-138c1-29-70-34-71-4 15 46 118 7 119 86 1 83-164 76-172 9l43-7c4 19 20 25 44 25 33 8 57-30 24-41C81-84 22-81 20-136c-2-80 154-74 161-7" id="bO"/><g id="F"><use transform="matrix(0.04938271604938272,0,0,0.04938271604938272,0,0)" xlink:href="#bN"/><use transform="matrix(0.04938271604938272,0,0,0.04938271604938272,5.8765432098765435,0)" xlink:href="#bO"/><use transform="matrix(0.04938271604938272,0,0,0.04938271604938272,15.753086419753087,0)" xlink:href="#bh"/><use transform="matrix(0.04938271604938272,0,0,0.04938271604938272,25.629629629629633,0)" xlink:href="#bf"/><use transform="matrix(0.04938271604938272,0,0,0.04938271604938272,36.44444444444445,0)" xlink:href="#bE"/><use transform="matrix(0.04938271604938272,0,0,0.04938271604938272,41.38271604938272,0)" xlink:href="#bw"/><use transform="matrix(0.04938271604938272,0,0,0.04938271604938272,52.19753086419754,0)" xlink:href="#bi"/><use transform="matrix(0.04938271604938272,0,0,0.04938271604938272,59.111111111111114,0)" xlink:href="#bE"/><use transform="matrix(0.04938271604938272,0,0,0.04938271604938272,64.0493827160494,0)" xlink:href="#bF"/><use transform="matrix(0.04938271604938272,0,0,0.04938271604938272,69.92592592592594,0)" xlink:href="#bx"/></g><path fill="#333" d="M23 0v-37h61v-169l-59 37v-38l62-41h46v211h57V0H23" id="bP"/><use transform="matrix(0.04938271604938272,0,0,0.04938271604938272,0,0)" xlink:href="#bP" id="G"/><path fill="#333" d="M136-208V0H84v-208H4v-40h212v40h-80" id="bQ"/><g id="H"><use transform="matrix(0.05,0,0,0.05,0,0)" xlink:href="#bQ"/><use transform="matrix(0.05,0,0,0.05,9.600000000000001,0)" xlink:href="#bh"/><use transform="matrix(0.05,0,0,0.05,19.6,0)" xlink:href="#be"/><use transform="matrix(0.05,0,0,0.05,29.6,0)" xlink:href="#bt"/></g><g id="I"><use transform="matrix(0.05,0,0,0.05,0,0)" xlink:href="#aW"/><use transform="matrix(0.05,0,0,0.05,10,0)" xlink:href="#aR"/><use transform="matrix(0.05,0,0,0.05,20,0)" xlink:href="#aS"/><use transform="matrix(0.05,0,0,0.05,34.95,0)" xlink:href="#aT"/><use transform="matrix(0.05,0,0,0.05,44.95,0)" xlink:href="#aU"/></g><path fill="#333" d="M135-194c52 0 70 43 70 98 0 56-19 99-73 100-30 1-46-15-58-35L72 0H24l1-261h50v104c11-23 29-37 60-37zM114-30c31 0 40-27 40-66 0-37-7-63-39-63s-41 28-41 65c0 36 8 64 40 64" id="bR"/><g id="J"><use transform="matrix(0.04938271604938272,0,0,0.04938271604938272,0,0)" xlink:href="#bN"/><use transform="matrix(0.04938271604938272,0,0,0.04938271604938272,5.8765432098765435,0)" xlink:href="#bt"/><use transform="matrix(0.04938271604938272,0,0,0.04938271604938272,21.679012345679013,0)" xlink:href="#bh"/><use transform="matrix(0.04938271604938272,0,0,0.04938271604938272,31.555555555555557,0)" xlink:href="#bt"/><use transform="matrix(0.04938271604938272,0,0,0.04938271604938272,47.358024691358025,0)" xlink:href="#bR"/><use transform="matrix(0.04938271604938272,0,0,0.04938271604938272,58.17283950617284,0)" xlink:href="#bh"/><use transform="matrix(0.04938271604938272,0,0,0.04938271604938272,68.0493827160494,0)" xlink:href="#bi"/><use transform="matrix(0.04938271604938272,0,0,0.04938271604938272,74.96296296296298,0)" xlink:href="#bO"/></g><path fill="#333" d="M101-251c68 0 84 54 84 127C185-50 166 4 99 4S15-52 14-124c-1-75 17-127 87-127zm-1 216c37-5 36-46 36-89s4-89-36-89c-39 0-36 45-36 89 0 43-3 85 36 89" id="bS"/><path fill="#333" d="M24 0v-54h51V0H24" id="bT"/><path fill="#333" d="M86-200l42-18 12 35-44 11 32 37-32 21-26-44-26 44-32-21 33-37-44-11 12-35 42 18-3-48h38" id="bU"/><g id="K"><use transform="matrix(0.04938271604938272,0,0,0.04938271604938272,0,0)" xlink:href="#bS"/><use transform="matrix(0.04938271604938272,0,0,0.04938271604938272,9.876543209876544,0)" xlink:href="#bT"/><use transform="matrix(0.04938271604938272,0,0,0.04938271604938272,14.814814814814817,0)" xlink:href="#bT"/><use transform="matrix(0.04938271604938272,0,0,0.04938271604938272,19.75308641975309,0)" xlink:href="#bU"/></g><g id="L"><use transform="matrix(0.04938271604938272,0,0,0.04938271604938272,0,0)" xlink:href="#bN"/><use transform="matrix(0.04938271604938272,0,0,0.04938271604938272,5.8765432098765435,0)" xlink:href="#bF"/><use transform="matrix(0.04938271604938272,0,0,0.04938271604938272,11.753086419753087,0)" xlink:href="#bh"/><use transform="matrix(0.04938271604938272,0,0,0.04938271604938272,21.629629629629633,0)" xlink:href="#be"/><use transform="matrix(0.04938271604938272,0,0,0.04938271604938272,31.506172839506174,0)" xlink:href="#bt"/></g><g id="M"><use transform="matrix(0.04938271604938272,0,0,0.04938271604938272,0,0)" xlink:href="#bS"/><use transform="matrix(0.04938271604938272,0,0,0.04938271604938272,9.876543209876544,0)" xlink:href="#bT"/><use transform="matrix(0.04938271604938272,0,0,0.04938271604938272,14.814814814814817,0)" xlink:href="#bT"/><use transform="matrix(0.04938271604938272,0,0,0.04938271604938272,19.75308641975309,0)" xlink:href="#bP"/></g><path fill="#333" d="M88-194c31-1 46 15 58 34l-1-101h50l1 261h-48c-2-10 0-23-3-31C134-8 116 4 84 4 32 4 16-41 15-95c0-56 19-97 73-99zm17 164c33 0 40-30 41-66 1-37-9-64-41-64s-38 30-39 65c0 43 13 65 39 65" id="bV"/><g id="N"><use transform="matrix(0.04938271604938272,0,0,0.04938271604938272,0,0)" xlink:href="#bN"/><use transform="matrix(0.04938271604938272,0,0,0.04938271604938272,5.8765432098765435,0)" xlink:href="#bv"/><use transform="matrix(0.04938271604938272,0,0,0.04938271604938272,10.814814814814817,0)" xlink:href="#bh"/><use transform="matrix(0.04938271604938272,0,0,0.04938271604938272,20.69135802469136,0)" xlink:href="#be"/><use transform="matrix(0.04938271604938272,0,0,0.04938271604938272,30.567901234567906,0)" xlink:href="#bV"/></g><path fill="#333" d="M24-248c93 1 206-16 204 79-1 75-69 88-152 82V0H24v-248zm52 121c47 0 100 7 100-41 0-47-54-39-100-39v80" id="bW"/><path fill="#333" d="M25-224v-37h50v37H25zM75 22c2 45-34 59-81 51V38c22 5 31-5 31-27v-201h50V22" id="bX"/><path fill="#333" d="M190-63c-7 42-38 67-86 67-59 0-84-38-90-98-12-110 154-137 174-36l-49 2c-2-19-15-32-35-32-30 0-35 28-38 64-6 74 65 87 74 30" id="bY"/><g id="O"><use transform="matrix(0.05,0,0,0.05,0,0)" xlink:href="#bW"/><use transform="matrix(0.05,0,0,0.05,12,0)" xlink:href="#bi"/><use transform="matrix(0.05,0,0,0.05,19,0)" xlink:href="#bw"/><use transform="matrix(0.05,0,0,0.05,29.950000000000003,0)" xlink:href="#bX"/><use transform="matrix(0.05,0,0,0.05,34.95,0)" xlink:href="#bh"/><use transform="matrix(0.05,0,0,0.05,44.95,0)" xlink:href="#bY"/><use transform="matrix(0.05,0,0,0.05,54.95,0)" xlink:href="#bF"/></g><g id="P"><use transform="matrix(0.05,0,0,0.05,0,0)" xlink:href="#aP"/><use transform="matrix(0.05,0,0,0.05,5,0)" xlink:href="#aM"/><use transform="matrix(0.05,0,0,0.05,8.95,0)" xlink:href="#aP"/><use transform="matrix(0.05,0,0,0.05,13.949999999999998,0)" xlink:href="#aY"/><use transform="matrix(0.05,0,0,0.05,17.9,0)" xlink:href="#aT"/><use transform="matrix(0.05,0,0,0.05,27.899999999999995,0)" xlink:href="#aU"/></g><g id="Q"><use transform="matrix(0.05,0,0,0.05,0,0)" xlink:href="#aZ"/><use transform="matrix(0.05,0,0,0.05,10,0)" xlink:href="#aT"/><use transform="matrix(0.05,0,0,0.05,20,0)" xlink:href="#aO"/><use transform="matrix(0.05,0,0,0.05,29,0)" xlink:href="#br"/><use transform="matrix(0.05,0,0,0.05,38,0)" xlink:href="#aN"/><use transform="matrix(0.05,0,0,0.05,43.95,0)" xlink:href="#aM"/><use transform="matrix(0.05,0,0,0.05,47.900000000000006,0)" xlink:href="#ba"/><use transform="matrix(0.05,0,0,0.05,57.900000000000006,0)" xlink:href="#aP"/><use transform="matrix(0.05,0,0,0.05,62.900000000000006,0)" xlink:href="#aM"/><use transform="matrix(0.05,0,0,0.05,66.85000000000001,0)" xlink:href="#bc"/><use transform="matrix(0.05,0,0,0.05,76.85000000000001,0)" xlink:href="#aW"/><use transform="matrix(0.05,0,0,0.05,86.85000000000001,0)" xlink:href="#aU"/></g><g id="R"><use transform="matrix(0.05,0,0,0.05,0,0)" xlink:href="#aO"/><use transform="matrix(0.05,0,0,0.05,9,0)" xlink:href="#aP"/><use transform="matrix(0.05,0,0,0.05,14,0)" xlink:href="#aR"/><use transform="matrix(0.05,0,0,0.05,24,0)" xlink:href="#aN"/><use transform="matrix(0.05,0,0,0.05,29.950000000000003,0)" xlink:href="#aP"/><use transform="matrix(0.05,0,0,0.05,34.95,0)" xlink:href="#bM"/><use transform="matrix(0.05,0,0,0.05,47.900000000000006,0)" xlink:href="#aR"/><use transform="matrix(0.05,0,0,0.05,57.900000000000006,0)" xlink:href="#aP"/><use transform="matrix(0.05,0,0,0.05,62.900000000000006,0)" xlink:href="#aT"/><use transform="matrix(0.05,0,0,0.05,72.9,0)" xlink:href="#aU"/></g><g id="S"><use transform="matrix(0.05,0,0,0.05,0,0)" xlink:href="#bM"/><use transform="matrix(0.05,0,0,0.05,12.950000000000001,0)" xlink:href="#aR"/><use transform="matrix(0.05,0,0,0.05,22.950000000000003,0)" xlink:href="#aP"/><use transform="matrix(0.05,0,0,0.05,27.950000000000003,0)" xlink:href="#aT"/></g><g id="T"><use transform="matrix(0.05,0,0,0.05,0,0)" xlink:href="#aT"/><use transform="matrix(0.05,0,0,0.05,10,0)" xlink:href="#aW"/><use transform="matrix(0.05,0,0,0.05,20,0)" xlink:href="#aZ"/><use transform="matrix(0.05,0,0,0.05,30,0)" xlink:href="#bM"/><use transform="matrix(0.05,0,0,0.05,42.95,0)" xlink:href="#aR"/><use transform="matrix(0.05,0,0,0.05,52.95,0)" xlink:href="#aP"/><use transform="matrix(0.05,0,0,0.05,57.95,0)" xlink:href="#aT"/><use transform="matrix(0.05,0,0,0.05,67.95,0)" xlink:href="#aU"/></g><g id="U"><use transform="matrix(0.05,0,0,0.05,0,0)" xlink:href="#br"/><use transform="matrix(0.05,0,0,0.05,9,0)" xlink:href="#aY"/><use transform="matrix(0.05,0,0,0.05,12.949999999999998,0)" xlink:href="#aM"/><use transform="matrix(0.05,0,0,0.05,16.9,0)" xlink:href="#aT"/><use transform="matrix(0.05,0,0,0.05,26.899999999999995,0)" xlink:href="#aW"/><use transform="matrix(0.05,0,0,0.05,36.9,0)" xlink:href="#aP"/><use transform="matrix(0.05,0,0,0.05,41.9,0)" xlink:href="#aU"/></g><g id="V"><use transform="matrix(0.04938271604938272,0,0,0.04938271604938272,0,0)" xlink:href="#bN"/><use transform="matrix(0.04938271604938272,0,0,0.04938271604938272,5.8765432098765435,0)" xlink:href="#be"/><use transform="matrix(0.04938271604938272,0,0,0.04938271604938272,15.753086419753087,0)" xlink:href="#bv"/><use transform="matrix(0.04938271604938272,0,0,0.04938271604938272,20.69135802469136,0)" xlink:href="#bv"/><use transform="matrix(0.04938271604938272,0,0,0.04938271604938272,25.629629629629633,0)" xlink:href="#bW"/><use transform="matrix(0.04938271604938272,0,0,0.04938271604938272,37.48148148148149,0)" xlink:href="#bi"/><use transform="matrix(0.04938271604938272,0,0,0.04938271604938272,44.39506172839507,0)" xlink:href="#bw"/><use transform="matrix(0.04938271604938272,0,0,0.04938271604938272,55.209876543209894,0)" xlink:href="#bX"/><use transform="matrix(0.04938271604938272,0,0,0.04938271604938272,60.14814814814817,0)" xlink:href="#bh"/><use transform="matrix(0.04938271604938272,0,0,0.04938271604938272,70.02469135802471,0)" xlink:href="#bY"/><use transform="matrix(0.04938271604938272,0,0,0.04938271604938272,79.90123456790126,0)" xlink:href="#bF"/><use transform="matrix(0.04938271604938272,0,0,0.04938271604938272,85.7777777777778,0)" xlink:href="#bO"/></g><path fill="#333" d="M85 4C-2 5 27-109 22-190h50c7 57-23 150 33 157 60-5 35-97 40-157h50l1 190h-47c-2-12 1-28-3-38-12 25-28 42-61 42" id="bZ"/><g id="W"><use transform="matrix(0.05,0,0,0.05,0,0)" xlink:href="#bW"/><use transform="matrix(0.05,0,0,0.05,12,0)" xlink:href="#bi"/><use transform="matrix(0.05,0,0,0.05,19,0)" xlink:href="#bw"/><use transform="matrix(0.05,0,0,0.05,29.950000000000003,0)" xlink:href="#bX"/><use transform="matrix(0.05,0,0,0.05,34.95,0)" xlink:href="#bh"/><use transform="matrix(0.05,0,0,0.05,44.95,0)" xlink:href="#bY"/><use transform="matrix(0.05,0,0,0.05,54.95,0)" xlink:href="#bF"/><use transform="matrix(0.05,0,0,0.05,60.900000000000006,0)" xlink:href="#bD"/><use transform="matrix(0.05,0,0,0.05,72.9,0)" xlink:href="#bF"/><use transform="matrix(0.05,0,0,0.05,78.85000000000001,0)" xlink:href="#be"/><use transform="matrix(0.05,0,0,0.05,88.85000000000001,0)" xlink:href="#bF"/><use transform="matrix(0.05,0,0,0.05,94.80000000000001,0)" xlink:href="#bZ"/><use transform="matrix(0.05,0,0,0.05,105.75,0)" xlink:href="#bO"/></g><path fill="#333" d="M-5 72V49h209v23H-5" id="ca"/><path fill="#333" d="M197 0v-115H63V0H30v-248h33v105h134v-105h34V0h-34" id="cb"/><g id="X"><use transform="matrix(0.05,0,0,0.05,0,0)" xlink:href="#bJ"/><use transform="matrix(0.05,0,0,0.05,14,0)" xlink:href="#aQ"/><use transform="matrix(0.05,0,0,0.05,26.950000000000003,0)" xlink:href="#ca"/><use transform="matrix(0.05,0,0,0.05,36.95,0)" xlink:href="#cb"/><use transform="matrix(0.05,0,0,0.05,49.900000000000006,0)" xlink:href="#bJ"/><use transform="matrix(0.05,0,0,0.05,63.900000000000006,0)" xlink:href="#by"/><use transform="matrix(0.05,0,0,0.05,73.9,0)" xlink:href="#bM"/></g><path fill="#333" d="M143 4C61 4 22-44 18-125c-5-107 100-154 193-111 17 8 29 25 37 43l-32 9c-13-25-37-40-76-40-61 0-88 39-88 99 0 61 29 100 91 101 35 0 62-11 79-27v-45h-74v-28h105v86C228-13 192 4 143 4" id="cc"/><g id="Y"><use transform="matrix(0.05,0,0,0.05,0,0)" xlink:href="#bI"/><use transform="matrix(0.05,0,0,0.05,5,0)" xlink:href="#aQ"/><use transform="matrix(0.05,0,0,0.05,17.950000000000003,0)" xlink:href="#ca"/><use transform="matrix(0.05,0,0,0.05,27.950000000000003,0)" xlink:href="#bp"/><use transform="matrix(0.05,0,0,0.05,39.95,0)" xlink:href="#bK"/><use transform="matrix(0.05,0,0,0.05,52.900000000000006,0)" xlink:href="#bJ"/><use transform="matrix(0.05,0,0,0.05,66.9,0)" xlink:href="#cc"/><use transform="matrix(0.05,0,0,0.05,80.9,0)" xlink:href="#bK"/><use transform="matrix(0.05,0,0,0.05,93.85000000000001,0)" xlink:href="#bk"/><use transform="matrix(0.05,0,0,0.05,105.85000000000001,0)" xlink:href="#aV"/><use transform="matrix(0.05,0,0,0.05,117.85000000000001,0)" xlink:href="#aV"/></g><path fill="#333" d="M212-179c-10-28-35-45-73-45-59 0-87 40-87 99 0 60 29 101 89 101 43 0 62-24 78-52l27 14C228-24 195 4 139 4 59 4 22-46 18-125c-6-104 99-153 187-111 19 9 31 26 39 46" id="cd"/><g id="Z"><use transform="matrix(0.05,0,0,0.05,0,0)" xlink:href="#cd"/><use transform="matrix(0.05,0,0,0.05,12.950000000000001,0)" xlink:href="#bJ"/><use transform="matrix(0.05,0,0,0.05,26.950000000000003,0)" xlink:href="#bL"/><use transform="matrix(0.05,0,0,0.05,41.900000000000006,0)" xlink:href="#bp"/><use transform="matrix(0.05,0,0,0.05,53.900000000000006,0)" xlink:href="#by"/><use transform="matrix(0.05,0,0,0.05,63.900000000000006,0)" xlink:href="#bk"/><use transform="matrix(0.05,0,0,0.05,75.9,0)" xlink:href="#bo"/><use transform="matrix(0.05,0,0,0.05,86.85000000000001,0)" xlink:href="#bk"/><use transform="matrix(0.05,0,0,0.05,98.85000000000001,0)" xlink:href="#bM"/></g><g id="aa"><use transform="matrix(0.04938271604938272,0,0,0.04938271604938272,0,0)" xlink:href="#bN"/><use transform="matrix(0.04938271604938272,0,0,0.04938271604938272,5.8765432098765435,0)" xlink:href="#bO"/><use transform="matrix(0.04938271604938272,0,0,0.04938271604938272,15.753086419753087,0)" xlink:href="#bF"/><use transform="matrix(0.04938271604938272,0,0,0.04938271604938272,21.629629629629633,0)" xlink:href="#be"/><use transform="matrix(0.04938271604938272,0,0,0.04938271604938272,31.506172839506174,0)" xlink:href="#bF"/><use transform="matrix(0.04938271604938272,0,0,0.04938271604938272,37.38271604938272,0)" xlink:href="#bZ"/><use transform="matrix(0.04938271604938272,0,0,0.04938271604938272,48.19753086419754,0)" xlink:href="#bO"/></g><g id="ab"><use transform="matrix(0.04938271604938272,0,0,0.04938271604938272,0,0)" xlink:href="#bN"/><use transform="matrix(0.04938271604938272,0,0,0.04938271604938272,5.8765432098765435,0)" xlink:href="#bu"/><use transform="matrix(0.04938271604938272,0,0,0.04938271604938272,16.691358024691358,0)" xlink:href="#bi"/><use transform="matrix(0.04938271604938272,0,0,0.04938271604938272,23.604938271604937,0)" xlink:href="#bw"/><use transform="matrix(0.04938271604938272,0,0,0.04938271604938272,34.41975308641975,0)" xlink:href="#bX"/><use transform="matrix(0.04938271604938272,0,0,0.04938271604938272,39.358024691358025,0)" xlink:href="#bh"/><use transform="matrix(0.04938271604938272,0,0,0.04938271604938272,49.23456790123457,0)" xlink:href="#bY"/><use transform="matrix(0.04938271604938272,0,0,0.04938271604938272,59.111111111111114,0)" xlink:href="#bF"/></g></defs></g></svg>